<svg width="4" height="15" viewBox="0 0 4 15" fill="none" xmlns="http://www.w3.org/2000/svg">
<path d="M2 10.8203C2.46875 10.8203 2.85938 10.9896 3.17188 11.3281C3.51042 11.6406 3.67969 12.0312 3.67969 12.5C3.67969 12.9688 3.51042 13.3724 3.17188 13.7109C2.85938 14.0234 2.46875 14.1797 2 14.1797C1.53125 14.1797 1.1276 14.0234 0.789062 13.7109C0.476562 13.3724 0.320312 12.9688 0.320312 12.5C0.320312 12.0312 0.476562 11.6406 0.789062 11.3281C1.1276 10.9896 1.53125 10.8203 2 10.8203ZM2 5.82031C2.46875 5.82031 2.85938 5.98958 3.17188 6.32812C3.51042 6.64062 3.67969 7.03125 3.67969 7.5C3.67969 7.96875 3.51042 8.3724 3.17188 8.71094C2.85938 9.02344 2.46875 9.17969 2 9.17969C1.53125 9.17969 1.1276 9.02344 0.789062 8.71094C0.476562 8.3724 0.320312 7.96875 0.320312 7.5C0.320312 7.03125 0.476562 6.64062 0.789062 6.32812C1.1276 5.98958 1.53125 5.82031 2 5.82031ZM2 0.820312C2.46875 0.820312 2.85938 0.989583 3.17188 1.32812C3.51042 1.64062 3.67969 2.03125 3.67969 2.5C3.67969 2.96875 3.51042 3.3724 3.17188 3.71094C2.85938 4.02344 2.46875 4.17969 2 4.17969C1.53125 4.17969 1.1276 4.02344 0.789062 3.71094C0.476562 3.3724 0.320312 2.96875 0.320312 2.5C0.320312 2.03125 0.476562 1.64062 0.789062 1.32812C1.1276 0.989583 1.53125 0.820312 2 0.820312Z" fill="#00ACC1"/>
</svg>
