<svg width="15" height="18" viewBox="0 0 20 18" fill="none" xmlns="http://www.w3.org/2000/svg">
<path d="M18.0156 5.01562L10 9.98438L1.98438 5.01562V3L10 8.01562L18.0156 3V5.01562ZM18.0156 0.984375H1.98438C1.45312 0.984375 0.984375 1.1875 0.578125 1.59375C0.203125 1.96875 0.015625 2.4375 0.015625 3V15C0.015625 15.5625 0.203125 16.0469 0.578125 16.4531C0.984375 16.8281 1.45312 17.0156 1.98438 17.0156H18.0156C18.5469 17.0156 19 16.8281 19.375 16.4531C19.7812 16.0469 19.9844 15.5625 19.9844 15V3C19.9844 2.4375 19.7812 1.96875 19.375 1.59375C19 1.1875 18.5469 0.984375 18.0156 0.984375Z" fill="#37474F"/>
</svg>
