<svg width="15" height="22" viewBox="0 0 18 22" fill="none" xmlns="http://www.w3.org/2000/svg">
<path d="M18 16.9844V18.0156H0V16.9844L2.01562 15.0156V9.01562C2.01562 7.45312 2.46875 6.0625 3.375 4.84375C4.3125 3.59375 5.51562 2.75 6.98438 2.3125V1.98438C6.98438 1.45313 7.17188 1 7.54688 0.625C7.95312 0.21875 8.4375 0.015625 9 0.015625C9.5625 0.015625 10.0312 0.21875 10.4062 0.625C10.8125 1 11.0156 1.45313 11.0156 1.98438V2.3125C12.4844 2.75 13.6719 3.59375 14.5781 4.84375C15.5156 6.0625 15.9844 7.45312 15.9844 9.01562V15.0156L18 16.9844ZM11.0156 19C11.0156 19.5625 10.8125 20.0312 10.4062 20.4062C10.0312 20.8125 9.5625 21.0156 9 21.0156C8.4375 21.0156 7.95312 20.8125 7.54688 20.4062C7.17188 20.0312 6.98438 19.5625 6.98438 19H11.0156Z" fill="#37474F"/>
</svg>
