<svg width="20" height="20" viewBox="0 0 20 20" fill="none" xmlns="http://www.w3.org/2000/svg">
<path d="M1.98438 4H0.015625V18.0156C0.015625 18.5469 0.203125 19 0.578125 19.375C0.984375 19.7812 1.45312 19.9844 1.98438 19.9844H16V18.0156H1.98438V4ZM18.0156 0.015625H6.01562C5.45312 0.015625 4.96875 0.21875 4.5625 0.625C4.1875 1 4 1.45313 4 1.98438V13.9844C4 14.5469 4.1875 15.0312 4.5625 15.4375C4.96875 15.8125 5.45312 16 6.01562 16H18.0156C18.5469 16 19 15.8125 19.375 15.4375C19.7812 15.0312 19.9844 14.5469 19.9844 13.9844V1.98438C19.9844 1.45313 19.7812 1 19.375 0.625C19 0.21875 18.5469 0.015625 18.0156 0.015625ZM10 12.4844V3.48438L16 7.98438L10 12.4844Z"/>
</svg>
