<svg width="18" height="18" viewBox="0 0 18 18" fill="none" xmlns="http://www.w3.org/2000/svg">
<path opacity="0.72" d="M11.0625 12.6094L13.6875 9.98438H3.98438V8.01562H13.6875L11.0625 5.39062L12.5156 3.98438L17.4844 9L12.5156 14.0156L11.0625 12.6094ZM15.9844 0C16.5469 0 17.0156 0.203125 17.3906 0.609375C17.7969 0.984375 18 1.45312 18 2.01562V6.65625L15.9844 4.6875V2.01562H2.01562V15.9844H15.9844V13.3125L18 11.3438V15.9844C18 16.5469 17.7969 17.0312 17.3906 17.4375C17.0156 17.8125 16.5469 18 15.9844 18H2.01562C1.45312 18 0.96875 17.8125 0.5625 17.4375C0.1875 17.0312 0 16.5469 0 15.9844V2.01562C0 1.45312 0.1875 0.984375 0.5625 0.609375C0.96875 0.203125 1.45312 0 2.01562 0H15.9844Z" />
</svg>
