<svg width="20" height="18" viewBox="0 0 20 18" fill="none" xmlns="http://www.w3.org/2000/svg">
<path opacity="0.72" d="M10 5.01562H1.98438C1.45312 5.01562 0.984375 5.21875 0.578125 5.625C0.203125 6 0.015625 6.45312 0.015625 6.98438V11.0156C0.015625 11.5469 0.203125 12.0156 0.578125 12.4219C0.984375 12.7969 1.45312 12.9844 1.98438 12.9844H3.01562V17.0156C3.01562 17.2969 3.10938 17.5312 3.29688 17.7188C3.48438 17.9062 3.71875 18 4 18H6.01562C6.29688 18 6.53125 17.9062 6.71875 17.7188C6.90625 17.5312 7 17.2969 7 17.0156V12.9844H10L15.0156 17.0156V0.984375L10 5.01562ZM13 12.6094L10.9844 11.0156H1.98438V6.98438H10.9844L13 5.39062V12.6094ZM19.5156 9C19.5156 9.84375 19.2812 10.6406 18.8125 11.3906C18.375 12.1094 17.7656 12.6406 16.9844 12.9844V5.01562C17.7656 5.39062 18.375 5.9375 18.8125 6.65625C19.2812 7.375 19.5156 8.15625 19.5156 9Z" />
</svg>
