<svg width="20" height="18" viewBox="0 0 20 18" fill="none" xmlns="http://www.w3.org/2000/svg">
<path opacity="0.72" d="M18.0156 15H1.98438V5.01562H18.0156V15ZM18.0156 3H10L7.98438 0.984375H1.98438C1.45312 0.984375 0.984375 1.1875 0.578125 1.59375C0.203125 1.96875 0.015625 2.4375 0.015625 3V15C0.015625 15.5625 0.203125 16.0469 0.578125 16.4531C0.984375 16.8281 1.45312 17.0156 1.98438 17.0156H18.0156C18.5469 17.0156 19 16.8281 19.375 16.4531C19.7812 16.0469 19.9844 15.5625 19.9844 15V5.01562C19.9844 4.45312 19.7812 3.98438 19.375 3.60938C19 3.20312 18.5469 3 18.0156 3Z" />
</svg>
