<svg width="19" height="18" viewBox="0 0 19 18" fill="none" xmlns="http://www.w3.org/2000/svg">
<path opacity="0.72" d="M2.01562 0C1.45312 0 0.96875 0.203125 0.5625 0.609375C0.1875 0.984375 0 1.45312 0 2.01562V15.9844C0 16.5469 0.1875 17.0312 0.5625 17.4375C0.96875 17.8125 1.45312 18 2.01562 18H15.9844C16.5469 18 17.0156 17.8125 17.3906 17.4375C17.7969 17.0312 18 16.5469 18 15.9844V13.7344C18.3125 13.5469 18.5469 13.3125 18.7031 13.0312C18.8906 12.7188 18.9844 12.375 18.9844 12V6C18.9844 5.625 18.8906 5.29688 18.7031 5.01562C18.5469 4.70312 18.3125 4.45312 18 4.26562V2.01562C18 1.45312 17.7969 0.984375 17.3906 0.609375C17.0156 0.203125 16.5469 0 15.9844 0H2.01562ZM2.01562 2.01562H15.9844V3.98438H9.98438C9.45312 3.98438 8.98438 4.1875 8.57812 4.59375C8.20312 4.96875 8.01562 5.4375 8.01562 6V12C8.01562 12.5625 8.20312 13.0469 8.57812 13.4531C8.98438 13.8281 9.45312 14.0156 9.98438 14.0156H15.9844V15.9844H2.01562V2.01562ZM9.98438 6H17.0156V12H9.98438V6ZM12.9844 7.5C12.5781 7.5 12.2188 7.65625 11.9062 7.96875C11.625 8.25 11.4844 8.59375 11.4844 9C11.4844 9.40625 11.625 9.76562 11.9062 10.0781C12.2188 10.3594 12.5781 10.5 12.9844 10.5C13.4219 10.5 13.7812 10.3594 14.0625 10.0781C14.3438 9.76562 14.4844 9.40625 14.4844 9C14.4844 8.59375 14.3438 8.25 14.0625 7.96875C13.7812 7.65625 13.4219 7.5 12.9844 7.5Z" />
</svg>
